<?xml version="1.0" encoding="iso-8859-1"?>
<!-- Generator: Adobe Illustrator 19.0.0, SVG Export Plug-In . SVG Version: 6.00 Build 0)  -->
<svg version="1.1" id="Layer_1" xmlns="http://www.w3.org/2000/svg" xmlns:xlink="http://www.w3.org/1999/xlink" x="0px" y="0px"
	 viewBox="0 0 496.2 496.2" style="enable-background:new 0 0 496.2 496.2;" xml:space="preserve">
<path style="fill:#32BEA6;" d="M496.2,248.1C496.2,111.1,385.1,0,248.1,0S0,111.1,0,248.1s111.1,248.1,248.1,248.1
	S496.2,385.1,496.2,248.1z"/>
<path style="fill:#EDC92C;" d="M126.4,244.2l-19.2-4.1c7.6-13.4,2.1-56.2-0.4-65.2l-0.3-1l-0.1-1.1c-0.6-7.2,1.9-14.3,6.8-19.6
	s11.8-8.3,19-8.3h232c7.2,0,14.1,3,19,8.3s7.3,12.4,6.8,19.6l-0.1,1.1l-0.3,1c-3.7,13.4-7.1,53.3-0.4,65.2l-19.2,4.1
	c-12.5-22.1-4.2-65.4-2-73.9c-0.1-0.8-0.4-1.5-1-2.1c-0.7-0.8-1.7-1.2-2.7-1.2H132.1c-1,0-2,0.4-2.7,1.2c-0.5,0.6-0.9,1.3-1,2.1
	C130.6,178.8,138.9,222.1,126.4,244.2z"/>
<path style="fill:#EA4949;" d="M416.6,284.1c-5.3-23.8-18.5-29.6-30.6-49.1c-12.1-19.6-12.9-56.9-12.9-56.9c0.3-3.9-1-7.8-3.7-10.7
	s-6.4-4.5-10.4-4.5H137.2c-3.9,0-7.7,1.6-10.4,4.5c-2.7,2.9-4,6.8-3.7,10.7c0,0-0.8,37.3-12.9,56.8c-12.1,19.6-25.3,25.4-30.6,49.2
	c-4.1,18.6,0.5,43.8,14.8,57.5c14.2,13.7,37.9,24.2,153.2,24.3l0,0c0.2,0,0.3,0,0.5,0c0.2,0,0.3,0,0.5,0l0,0
	c115.3-0.1,139-10.6,153.2-24.3C416.1,327.9,420.7,302.6,416.6,284.1z"/>
<g>
	<circle style="fill:#F9F9F9;" cx="147.2" cy="261.9" r="14.8"/>
	<circle style="fill:#F9F9F9;" cx="214.5" cy="261.9" r="14.8"/>
	<circle style="fill:#F9F9F9;" cx="281.7" cy="261.9" r="14.8"/>
	<circle style="fill:#F9F9F9;" cx="349" cy="261.9" r="14.8"/>
	<circle style="fill:#F9F9F9;" cx="113.5" cy="305.8" r="14.8"/>
	<circle style="fill:#F9F9F9;" cx="180.8" cy="305.8" r="14.8"/>
	<circle style="fill:#F9F9F9;" cx="248.1" cy="305.8" r="14.8"/>
	<circle style="fill:#F9F9F9;" cx="315.4" cy="305.8" r="14.8"/>
	<circle style="fill:#F9F9F9;" cx="382.7" cy="305.8" r="14.8"/>
	<circle style="fill:#F9F9F9;" cx="180.8" cy="220.8" r="14.8"/>
	<circle style="fill:#F9F9F9;" cx="248.1" cy="220.8" r="14.8"/>
	<circle style="fill:#F9F9F9;" cx="315.4" cy="220.8" r="14.8"/>
</g>
<g>
	<path style="fill:#EDC92C;" d="M238.6,161.4c-2.4,0-4.6-1.4-5.6-3.7L217.5,121c-1.3-3.1,0.1-6.7,3.3-8c3.1-1.3,6.7,0.1,8,3.2
		l15.5,36.7c1.3,3.1-0.1,6.7-3.3,8C240.2,161.2,239.4,161.4,238.6,161.4z"/>
	<path style="fill:#EDC92C;" d="M205.7,117.6c0-6.2,5.1-11.3,11.3-11.3s11.3,5.1,11.3,11.3c0,6.2-5.1,11.3-11.3,11.3
		C210.8,128.9,205.7,123.8,205.7,117.6z"/>
	<path style="fill:#EDC92C;" d="M253.2,161.4c-0.8,0-1.6-0.2-2.4-0.5c-3.1-1.3-4.6-4.9-3.2-8l15.5-36.7c1.3-3.1,4.9-4.6,8-3.2
		c3.1,1.3,4.6,4.9,3.2,8l-15.5,36.7C257.9,160,255.6,161.4,253.2,161.4z"/>
	<circle style="fill:#EDC92C;" cx="274.9" cy="117.6" r="11.3"/>
</g>
<g>
</g>
<g>
</g>
<g>
</g>
<g>
</g>
<g>
</g>
<g>
</g>
<g>
</g>
<g>
</g>
<g>
</g>
<g>
</g>
<g>
</g>
<g>
</g>
<g>
</g>
<g>
</g>
<g>
</g>
</svg>
